<svg width="24" height="24" viewBox="0 0 24 24" fill="none" xmlns="http://www.w3.org/2000/svg">
<path d="M4.5 6C4.5 5.40326 4.73705 4.83097 5.15901 4.40901C5.58097 3.98705 6.15326 3.75 6.75 3.75H18.75C19.3467 3.75 19.919 3.98705 20.341 4.40901C20.7629 4.83097 21 5.40326 21 6V13.5C21 14.0967 20.7629 14.669 20.341 15.091C19.919 15.5129 19.3467 15.75 18.75 15.75H12.75V9.75C12.75 8.75544 12.3549 7.80161 11.6517 7.09835C10.9484 6.39509 9.99456 6 9 6H5.25C4.99125 6 4.74 6.033 4.5 6.0945V6ZM21.75 18.75H12.75V17.25H21.75C21.9489 17.25 22.1397 17.329 22.2803 17.4697C22.421 17.6103 22.5 17.8011 22.5 18C22.5 18.1989 22.421 18.3897 22.2803 18.5303C22.1397 18.671 21.9489 18.75 21.75 18.75ZM4.5 7.5C3.90326 7.5 3.33097 7.73705 2.90901 8.15901C2.48705 8.58097 2.25 9.15326 2.25 9.75V18.75C2.25 19.3467 2.48705 19.919 2.90901 20.341C3.33097 20.7629 3.90326 21 4.5 21H9C9.59674 21 10.169 20.7629 10.591 20.341C11.0129 19.919 11.25 19.3467 11.25 18.75V9.75C11.25 9.15326 11.0129 8.58097 10.591 8.15901C10.169 7.73705 9.59674 7.5 9 7.5H4.5ZM6.75 18.75C6.55109 18.75 6.36032 18.671 6.21967 18.5303C6.07902 18.3897 6 18.1989 6 18C6 17.8011 6.07902 17.6103 6.21967 17.4697C6.36032 17.329 6.55109 17.25 6.75 17.25C6.94891 17.25 7.13968 17.329 7.28033 17.4697C7.42098 17.6103 7.5 17.8011 7.5 18C7.5 18.1989 7.42098 18.3897 7.28033 18.5303C7.13968 18.671 6.94891 18.75 6.75 18.75Z" fill="white"/>
</svg>
